G75*
%MOIN*%
%OFA0B0*%
%FSLAX24Y24*%
%IPPOS*%
%LPD*%
%AMOC8*
5,1,8,0,0,1.08239X$1,22.5*
%
%ADD10C,0.0050*%
%ADD11C,0.0160*%
%ADD12C,0.0100*%
%ADD13C,0.0080*%
%ADD14R,0.0620X0.0197*%
D10*
X003290Y006275D02*
X003290Y006450D01*
X003348Y006509D01*
X003406Y006450D01*
X003406Y006275D01*
X003523Y006275D02*
X003523Y006509D01*
X003465Y006509D01*
X003406Y006450D01*
X003658Y006450D02*
X003658Y006333D01*
X003716Y006275D01*
X003833Y006275D01*
X003891Y006333D01*
X003891Y006450D01*
X003833Y006509D01*
X003716Y006509D01*
X003658Y006450D01*
X004026Y006509D02*
X004201Y006509D01*
X004260Y006450D01*
X004260Y006333D01*
X004201Y006275D01*
X004026Y006275D01*
X004385Y006275D02*
X004444Y006275D01*
X004444Y006333D01*
X004385Y006333D01*
X004385Y006275D01*
X004579Y006333D02*
X004637Y006392D01*
X004754Y006392D01*
X004812Y006450D01*
X004754Y006509D01*
X004579Y006509D01*
X004579Y006333D02*
X004637Y006275D01*
X004812Y006275D01*
X004941Y006275D02*
X004999Y006333D01*
X004999Y006567D01*
X005058Y006509D02*
X004941Y006509D01*
X005192Y006450D02*
X005192Y006275D01*
X005192Y006450D02*
X005251Y006509D01*
X005368Y006509D01*
X005426Y006450D01*
X005426Y006625D02*
X005426Y006275D01*
X005561Y006275D02*
X005736Y006275D01*
X005794Y006333D01*
X005794Y006450D01*
X005736Y006509D01*
X005561Y006509D01*
X005561Y006217D01*
X005619Y006158D01*
X005678Y006158D01*
X005929Y006275D02*
X005929Y006509D01*
X006163Y006509D02*
X006163Y006333D01*
X006104Y006275D01*
X005929Y006275D01*
X006297Y006333D02*
X006297Y006450D01*
X006356Y006509D01*
X006473Y006509D01*
X006531Y006450D01*
X006531Y006333D01*
X006473Y006275D01*
X006356Y006275D01*
X006297Y006333D01*
X006666Y006275D02*
X006666Y006450D01*
X006724Y006509D01*
X006841Y006509D01*
X006899Y006450D01*
X007028Y006509D02*
X007145Y006509D01*
X007086Y006567D02*
X007086Y006333D01*
X007028Y006275D01*
X006899Y006275D02*
X006899Y006625D01*
X006872Y006775D02*
X006696Y006775D01*
X006562Y006950D02*
X006328Y006950D01*
X006193Y007009D02*
X006018Y007009D01*
X005960Y006950D01*
X005960Y006833D01*
X006018Y006775D01*
X006193Y006775D01*
X006193Y007125D01*
X005960Y007350D02*
X006050Y007480D01*
X005650Y007480D01*
X005750Y007350D01*
X005960Y007350D01*
X005986Y007387D02*
X005722Y007387D01*
X005684Y007436D02*
X006019Y007436D01*
X005825Y007009D02*
X005825Y006833D01*
X005767Y006775D01*
X005591Y006775D01*
X005591Y006717D02*
X005650Y006658D01*
X005708Y006658D01*
X005591Y006717D02*
X005591Y007009D01*
X005457Y006950D02*
X005223Y006950D01*
X005088Y006950D02*
X005030Y006892D01*
X004913Y006892D01*
X004855Y006833D01*
X004913Y006775D01*
X005088Y006775D01*
X005088Y006950D02*
X005030Y007009D01*
X004855Y007009D01*
X004720Y006833D02*
X004662Y006892D01*
X004487Y006892D01*
X004487Y006950D02*
X004487Y006775D01*
X004662Y006775D01*
X004720Y006833D01*
X004662Y007009D02*
X004545Y007009D01*
X004487Y006950D01*
X006696Y007009D02*
X006872Y007009D01*
X006930Y006950D01*
X006930Y006833D01*
X006872Y006775D01*
X007065Y006775D02*
X007240Y006775D01*
X007298Y006833D01*
X007298Y006950D01*
X007240Y007009D01*
X007065Y007009D01*
X007280Y006450D02*
X007513Y006450D01*
X007642Y006509D02*
X007759Y006509D01*
X007700Y006567D02*
X007700Y006333D01*
X007642Y006275D01*
X007893Y006333D02*
X007893Y006450D01*
X007952Y006509D01*
X008069Y006509D01*
X008127Y006450D01*
X008127Y006333D01*
X008069Y006275D01*
X007952Y006275D01*
X007893Y006333D01*
X008262Y006333D02*
X008262Y006450D01*
X008320Y006509D01*
X008495Y006509D01*
X008495Y006625D02*
X008495Y006275D01*
X008320Y006275D01*
X008262Y006333D01*
D11*
X005915Y007803D02*
X005917Y007826D01*
X005923Y007848D01*
X005932Y007870D01*
X005945Y007889D01*
X005960Y007906D01*
X005978Y007920D01*
X005999Y007931D01*
X006021Y007939D01*
X006043Y007943D01*
X006067Y007943D01*
X006089Y007939D01*
X006111Y007931D01*
X006132Y007920D01*
X006150Y007906D01*
X006165Y007889D01*
X006178Y007870D01*
X006187Y007848D01*
X006193Y007826D01*
X006195Y007803D01*
X006193Y007780D01*
X006187Y007758D01*
X006178Y007736D01*
X006165Y007717D01*
X006150Y007700D01*
X006132Y007686D01*
X006111Y007675D01*
X006089Y007667D01*
X006067Y007663D01*
X006043Y007663D01*
X006021Y007667D01*
X005999Y007675D01*
X005978Y007686D01*
X005960Y007700D01*
X005945Y007717D01*
X005932Y007736D01*
X005923Y007758D01*
X005917Y007780D01*
X005915Y007803D01*
X005515Y007803D02*
X005517Y007826D01*
X005523Y007848D01*
X005532Y007870D01*
X005545Y007889D01*
X005560Y007906D01*
X005578Y007920D01*
X005599Y007931D01*
X005621Y007939D01*
X005643Y007943D01*
X005667Y007943D01*
X005689Y007939D01*
X005711Y007931D01*
X005732Y007920D01*
X005750Y007906D01*
X005765Y007889D01*
X005778Y007870D01*
X005787Y007848D01*
X005793Y007826D01*
X005795Y007803D01*
X005793Y007780D01*
X005787Y007758D01*
X005778Y007736D01*
X005765Y007717D01*
X005750Y007700D01*
X005732Y007686D01*
X005711Y007675D01*
X005689Y007667D01*
X005667Y007663D01*
X005643Y007663D01*
X005621Y007667D01*
X005599Y007675D01*
X005578Y007686D01*
X005560Y007700D01*
X005545Y007717D01*
X005532Y007736D01*
X005523Y007758D01*
X005517Y007780D01*
X005515Y007803D01*
D12*
X005289Y007789D02*
X005077Y007789D01*
X005085Y007768D02*
X005049Y007855D01*
X005023Y007947D01*
X004619Y007988D01*
X004619Y008292D01*
X005023Y008333D01*
X005049Y008425D01*
X005085Y008512D01*
X005131Y008595D01*
X004875Y008910D01*
X005090Y009125D01*
X005405Y008869D01*
X005488Y008915D01*
X005575Y008951D01*
X005667Y008977D01*
X005708Y009381D01*
X006012Y009381D01*
X006053Y008977D01*
X006145Y008951D01*
X006232Y008915D01*
X006315Y008869D01*
X006630Y009125D01*
X006845Y008910D01*
X006589Y008595D01*
X006635Y008512D01*
X006671Y008425D01*
X006697Y008333D01*
X007101Y008292D01*
X007101Y007988D01*
X006697Y007947D01*
X006671Y007855D01*
X006635Y007768D01*
X006589Y007685D01*
X006845Y007370D01*
X006630Y007155D01*
X006441Y007326D01*
X006441Y008080D01*
X006435Y008168D01*
X006414Y008254D01*
X006380Y008335D01*
X006333Y008409D01*
X006275Y008475D01*
X006206Y008530D01*
X006129Y008574D01*
X006047Y008604D01*
X005960Y008620D01*
X005960Y008680D01*
X005997Y008707D01*
X006026Y008742D01*
X006047Y008782D01*
X006058Y008826D01*
X006059Y008871D01*
X006050Y008916D01*
X006031Y008957D01*
X006003Y008993D01*
X005968Y009022D01*
X005927Y009042D01*
X005883Y009052D01*
X005837Y009052D01*
X005793Y009042D01*
X005752Y009022D01*
X005717Y008993D01*
X005689Y008957D01*
X005670Y008916D01*
X005661Y008871D01*
X005662Y008826D01*
X005673Y008782D01*
X005694Y008742D01*
X005723Y008707D01*
X005760Y008680D01*
X005760Y008620D01*
X005676Y008605D01*
X005595Y008576D01*
X005521Y008535D01*
X005454Y008482D01*
X005396Y008419D01*
X005350Y008347D01*
X005316Y008268D01*
X005296Y008185D01*
X005289Y008100D01*
X005289Y007346D01*
X005090Y007155D01*
X004875Y007370D01*
X005131Y007685D01*
X005085Y007768D01*
X005128Y007691D02*
X005289Y007691D01*
X005289Y007592D02*
X005056Y007592D01*
X004975Y007494D02*
X005289Y007494D01*
X005289Y007395D02*
X004895Y007395D01*
X004949Y007297D02*
X005238Y007297D01*
X005135Y007198D02*
X005047Y007198D01*
X005040Y007888D02*
X005289Y007888D01*
X005289Y007986D02*
X004636Y007986D01*
X004619Y008085D02*
X005289Y008085D01*
X005296Y008183D02*
X004619Y008183D01*
X004619Y008282D02*
X005322Y008282D01*
X005371Y008380D02*
X005036Y008380D01*
X005071Y008479D02*
X005450Y008479D01*
X005597Y008577D02*
X005121Y008577D01*
X005066Y008676D02*
X005760Y008676D01*
X005677Y008774D02*
X004986Y008774D01*
X004905Y008873D02*
X005400Y008873D01*
X005411Y008873D02*
X005661Y008873D01*
X005645Y008971D02*
X005700Y008971D01*
X005676Y009070D02*
X006044Y009070D01*
X006034Y009168D02*
X005686Y009168D01*
X005696Y009267D02*
X006024Y009267D01*
X006014Y009365D02*
X005706Y009365D01*
X006020Y008971D02*
X006075Y008971D01*
X006059Y008873D02*
X006309Y008873D01*
X006320Y008873D02*
X006815Y008873D01*
X006784Y008971D02*
X006441Y008971D01*
X006562Y009070D02*
X006685Y009070D01*
X006734Y008774D02*
X006043Y008774D01*
X005960Y008676D02*
X006654Y008676D01*
X006599Y008577D02*
X006120Y008577D01*
X006270Y008479D02*
X006649Y008479D01*
X006684Y008380D02*
X006352Y008380D01*
X006403Y008282D02*
X007101Y008282D01*
X007101Y008183D02*
X006431Y008183D01*
X006440Y008085D02*
X007101Y008085D01*
X007084Y007986D02*
X006441Y007986D01*
X006441Y007888D02*
X006680Y007888D01*
X006643Y007789D02*
X006441Y007789D01*
X006441Y007691D02*
X006592Y007691D01*
X006664Y007592D02*
X006441Y007592D01*
X006441Y007494D02*
X006745Y007494D01*
X006825Y007395D02*
X006441Y007395D01*
X006473Y007297D02*
X006771Y007297D01*
X006673Y007198D02*
X006582Y007198D01*
X005279Y008971D02*
X004936Y008971D01*
X005035Y009070D02*
X005158Y009070D01*
D13*
X003145Y005016D02*
X003145Y004504D01*
X003775Y004504D02*
X003775Y005016D01*
X006695Y005046D02*
X006695Y004534D01*
X007325Y004534D02*
X007325Y005046D01*
X007205Y009184D02*
X007205Y009696D01*
X007835Y009696D02*
X007835Y009184D01*
X004495Y009234D02*
X004495Y009746D01*
X003865Y009746D02*
X003865Y009234D01*
D14*
X004185Y009293D03*
X007515Y009637D03*
X007005Y004987D03*
X003465Y004563D03*
M02*
