%
M48
M72
T01C0.0130
T02C0.0197
T03C0.0551
T04C0.0827
T05C0.1102
%
T01
X4942Y5392
X6600Y5450
X4650Y8900
T02
X2650Y1550
X2650Y2500
X3450Y2500
X3450Y1550
X4250Y1550
X4250Y2500
X4250Y3500
X3450Y3500
X2650Y3500
X6200Y3500
X6200Y2500
X6200Y1550
X7000Y1550
X7000Y2500
X7800Y2500
X7800Y1550
X7800Y3500
X7000Y3500
X6650Y10900
X7500Y10900
X7500Y11900
X6650Y11900
X6650Y12850
X7500Y12850
X8300Y12850
X8300Y11900
X8300Y10900
X5000Y10950
X4200Y10950
X3400Y10950
X3400Y11900
X4200Y11900
X5000Y11900
X5000Y12850
X4200Y12850
X3400Y12850
T03
X8950Y5750
X9900Y8500
T04
X9650Y10700
X9650Y3400
T05
X9502Y1583
X1600Y6450
X1600Y9800
X1628Y12803
M30
